<svg width="342" height="198" viewBox="0 0 342 198" fill="none" xmlns="http://www.w3.org/2000/svg">
<path d="M280.234 29.0645H177.122V90.6138H280.234V29.0645Z" fill="#F2F6F9"/>
<path d="M272.61 36.4917V83.189H184.75V36.4917H272.61ZM274.388 34.8022H182.972V84.8784H274.388V34.8022Z" fill="#E2E6E8"/>
<path d="M154.471 150.508H107.288V197.247H154.471V150.508Z" fill="#F2F6F9"/>
<path d="M268.032 166.08H205.026V194.044H268.032V166.08Z" fill="#F2F6F9"/>
<path d="M80.5329 25.3628H16.6162V92.8082H80.5329V25.3628Z" fill="#F2F6F9"/>
<path d="M162.369 3.91992H93.9541V74.3049H162.369V3.91992Z" fill="#F2F6F9"/>
<path d="M165.753 86.0991H97.374V140.956H165.753V86.0991Z" fill="#F2F6F9"/>
<path d="M341.998 68.9287H294.989V114.684H341.998V68.9287Z" fill="#F2F6F9"/>
<path d="M320.633 22.5034H296.289V57.8501H320.633V22.5034Z" fill="#F2F6F9"/>
<path d="M263.831 0.376465H193.525V22.4697H263.831V0.376465Z" fill="#F2F6F9"/>
<path d="M320.631 131.665H294.989V182.866H320.631V131.665Z" fill="#F2F6F9"/>
<path d="M283.434 103.076H216.422V156.482H283.434V103.076Z" fill="#F2F6F9"/>
<path d="M77.104 104.609H0V150.565H77.104V104.609Z" fill="#F2F6F9"/>
<path d="M67.6439 112.787V142.388H9.46313V112.787H67.6439ZM70.0885 110.464H7.01855V144.711H70.0885V110.464Z" fill="#E2E6E8"/>
<path d="M269.227 114.982V144.578H230.627V114.982H269.227ZM271.672 112.659H228.183V146.901H271.672V112.659Z" fill="#E2E6E8"/>
<path d="M153.051 97.1081V129.948H110.077V97.1081H153.051ZM155.495 94.7852H107.633V132.271H155.495V94.7852Z" fill="#E2E6E8"/>
<path d="M64.5324 41.7037V76.4675H32.6174V41.7037H64.5301H64.5324ZM70.086 36.4243H27.0615V81.7469H70.086V36.4243Z" fill="#E2E6E8"/>
<path d="M152.693 13.3828V64.8421H103.63V13.3828H152.693ZM154.471 11.6934H101.853V66.5315H154.471V11.6934Z" fill="#E2E6E8"/>
<path d="M141.307 163.09V184.67H120.45V163.09H141.307ZM144.863 159.711H116.895V188.049H144.863V159.711Z" fill="#E2E6E8"/>
<path d="M313.534 139.142V175.389H302.089V139.142H313.534ZM314.2 138.509H301.422V176.022H314.2V138.509Z" fill="#E2E6E8"/>
<path d="M255.189 7.56468V15.2789H202.169V7.56468H255.189ZM255.856 6.93115H201.502V15.9125H255.856V6.93115Z" fill="#E2E6E8"/>
<path d="M327.493 82.5934V101.019H309.492V82.5934H327.493ZM331.271 79.0034H305.714V104.609H331.271V79.0034Z" fill="#E2E6E8"/>
<path d="M96.8276 161.295H51.9697V186.461H96.8276V161.295Z" fill="#F2F6F9"/>
<path d="M170.964 197.479C242.19 197.479 299.929 196.822 299.929 196.011C299.929 195.201 242.19 194.543 170.964 194.543C99.7394 194.543 42 195.201 42 196.011C42 196.822 99.7394 197.479 170.964 197.479Z" fill="#E4EFF7"/>
<path d="M197.705 142.231L181.66 195.946" stroke="#475056" stroke-width="5" stroke-miterlimit="10"/>
<path d="M211.262 142.231L195.217 195.946" stroke="#475056" stroke-width="5" stroke-miterlimit="10"/>
<path d="M230.774 142.231L246.82 195.946" stroke="#475056" stroke-width="5" stroke-miterlimit="10"/>
<path d="M244.33 142.231L260.375 195.946" stroke="#475056" stroke-width="5" stroke-miterlimit="10"/>
<path d="M204.815 48.2831C210.024 48.2831 214.247 43.1586 214.247 36.8373C214.247 30.516 210.024 25.3916 204.815 25.3916C199.606 25.3916 195.384 30.516 195.384 36.8373C195.384 43.1586 199.606 48.2831 204.815 48.2831Z" fill="#24272D"/>
<path d="M134.029 98.0594C134.029 94.4695 138.674 91.5806 144.403 91.5806C150.132 91.5806 154.775 94.48 154.775 98.0594" fill="#72A065"/>
<path d="M132.476 88.8096H160.411V91.5802H134.096C133.798 91.5796 133.504 91.5233 133.229 91.4144C132.954 91.3055 132.704 91.1462 132.494 90.9456C132.284 90.7449 132.117 90.5069 132.004 90.2451C131.891 89.9833 131.833 89.7029 131.834 89.4199C131.836 89.2585 131.904 89.1042 132.024 88.9901C132.144 88.876 132.306 88.8112 132.476 88.8096Z" fill="#E09BD3"/>
<path d="M158.326 94.9614H144.17C143.27 94.9614 142.541 95.6545 142.541 96.5093V96.5115C142.541 97.3664 143.27 98.0594 144.17 98.0594H158.326C159.226 98.0594 159.955 97.3664 159.955 96.5115V96.5093C159.955 95.6545 159.226 94.9614 158.326 94.9614Z" fill="#E09BD3"/>
<path d="M145.663 89.3501H166.313V95.5017H149.492C148.477 95.5017 147.503 95.1183 146.785 94.436C146.067 93.7536 145.663 92.8281 145.663 91.8631V89.3501Z" fill="#E09BD3"/>
<path d="M250.057 78.023H237.565V98.0361H260.726C267.198 98.0361 270.391 90.5563 265.745 86.2778C257.053 78.2722 246.066 68.6995 240.712 66.2415C231.094 61.8237 215.32 61.4752 208.39 63.0358C201.461 64.5964 185.963 80.3522 185.963 80.3522L156.968 84.2611V98.4099H183.594C186.932 98.41 190.222 97.6489 193.187 96.1904L205.29 90.2437C205.29 90.2437 212.037 100.169 213.769 107.376H245.821C245.821 107.376 243.788 93.0777 243.219 84.9221" fill="white"/>
<path d="M176.394 86.0559L168.44 74.7368L160.484 86.0559H176.394Z" fill="#FFC774"/>
<path d="M263.352 86.0559L255.398 74.7368L247.444 86.0559H263.352Z" fill="#FFC774"/>
<path d="M204.76 86.0559L196.806 74.7368L188.853 86.0559H204.76Z" fill="#FFC774"/>
<path d="M233.128 86.0559L225.172 74.7368L217.219 86.0559H233.128Z" fill="#FFC774"/>
<path d="M219.497 70.4268L211.541 59.1099L203.587 70.4268H219.497Z" fill="#FFC774"/>
<path d="M190.775 103.397L182.819 92.0806L174.865 103.397H190.775Z" fill="#FFC774"/>
<path d="M219.497 103.397L211.541 92.0806L203.587 103.397H219.497Z" fill="#FFC774"/>
<path d="M249.586 103.397L241.633 92.0806L233.677 103.397H249.586Z" fill="#FFC774"/>
<path d="M237.565 98.0361H260.726C267.198 98.0361 270.391 90.5563 265.745 86.2778C257.053 78.2722 246.066 68.6995 240.712 66.2415C231.094 61.8237 215.32 61.4752 208.39 63.0358C201.461 64.5964 185.963 80.3522 185.963 80.3522L156.968 84.2611V98.4099H183.594C186.932 98.41 190.222 97.6489 193.187 96.1904L205.29 90.2437C205.29 90.2437 212.037 100.169 213.769 107.376H245.821C245.821 107.376 245.506 106.23 244.59 98.0636" stroke="#25282D" stroke-width="3" stroke-miterlimit="10"/>
<path d="M250.055 78.0229H237.565" stroke="#25282D" stroke-width="3" stroke-miterlimit="10"/>
<path d="M252.471 132.713H189.494V142.655H252.471V132.713Z" fill="#601C4F"/>
<path d="M194.35 196.011H221.675L225.12 195.975L222.484 185.461L210.122 186.409L194.35 196.011Z" fill="#601C4F"/>
<path d="M131.92 181.144L155.434 194.377L158.417 196.011L164.195 180.99L151.75 179.689L131.92 181.144Z" fill="#601C4F"/>
<path d="M219.046 68.5515C217.644 68.5508 216.28 68.1154 215.161 67.3113C214.042 66.5071 213.23 65.3781 212.848 64.0956L206.861 44.0191C206.62 43.2424 206.543 42.4279 206.635 41.6228C206.728 40.8177 206.987 40.0379 207.398 39.3287C207.81 38.6194 208.365 37.9948 209.033 37.4909C209.7 36.987 210.466 36.6138 211.286 36.3931C212.106 36.1723 212.964 36.1083 213.81 36.2047C214.656 36.3011 215.474 36.5561 216.215 36.9548C216.957 37.3535 217.609 37.8881 218.131 38.5276C218.654 39.1672 219.039 39.8989 219.262 40.6805L225.249 60.757C225.48 61.5308 225.548 62.3403 225.449 63.1392C225.351 63.9381 225.088 64.7107 224.675 65.4129C224.262 66.1151 223.708 66.7332 223.044 67.2319C222.38 67.7306 221.619 68.1 220.804 68.3192C220.232 68.4723 219.641 68.5504 219.046 68.5515Z" fill="#E09BD3"/>
<path d="M213.158 59.6377L212.033 59.9333C210.724 60.2774 209.351 60.343 208.012 60.1256C206.673 59.9081 205.401 59.4129 204.286 58.6752C203.171 57.9375 202.241 56.9754 201.562 55.8573C200.883 54.7392 200.472 53.4927 200.357 52.2064L199.786 45.8352C199.602 43.7774 200.187 41.7239 201.439 40.0354C202.69 38.347 204.528 37.1315 206.629 36.6026C208.999 36.0064 211.522 36.3293 213.642 37.5003C215.762 38.6713 217.306 40.5946 217.934 42.8471L219.625 48.9226C220.248 51.158 219.918 53.5366 218.708 55.5426C217.497 57.5485 215.503 59.0199 213.158 59.6377Z" fill="#E09BD3"/>
<path d="M204.31 46.5684L202.717 52.1793L205.048 52.2215" stroke="#25282D" stroke-width="3" stroke-miterlimit="10"/>
<path d="M207.121 48.7499C207.746 48.7499 208.253 48.2686 208.253 47.675C208.253 47.0813 207.746 46.6001 207.121 46.6001C206.497 46.6001 205.99 47.0813 205.99 47.675C205.99 48.2686 206.497 48.7499 207.121 48.7499Z" fill="#24272D"/>
<path d="M201.686 48.7499C202.311 48.7499 202.817 48.2686 202.817 47.675C202.817 47.0813 202.311 46.6001 201.686 46.6001C201.061 46.6001 200.555 47.0813 200.555 47.675C200.555 48.2686 201.061 48.7499 201.686 48.7499Z" fill="#24272D"/>
<path d="M207.444 54.3479C207.444 54.3479 208.831 54.2761 209.404 53.1294" stroke="#25282D" stroke-width="3" stroke-miterlimit="10"/>
<path d="M259.691 53.4146C260.938 67.3268 248.557 62.8034 248.557 62.8034C248.557 62.8034 256.469 78.0736 238.763 76.7981C221.058 75.5226 216.227 63.57 216.913 56.7364C217.187 54.0122 218.678 51.9025 220.362 49.8668C210.66 48.4477 210.806 42.1251 210.806 42.1251C210.806 42.1251 195.25 47.867 195.377 36.5395C195.503 25.212 207.773 21.5798 215.024 21.7001C216.552 21.7303 218.066 21.9795 219.516 22.4393C224.183 23.8837 227.801 26.2404 233.997 26.3291C251.109 26.5868 252.758 41.9456 252.758 41.9456C252.758 41.9456 258.849 44.0003 259.691 53.4146Z" fill="#24272D"/>
<path d="M222.276 46.4383C223.169 44.4244 222.176 42.1036 220.057 41.2548C217.938 40.4059 215.496 41.3504 214.603 43.3644L213.133 46.6782C212.239 48.6922 213.232 51.013 215.351 51.8618C217.47 52.7107 219.912 51.7662 220.806 49.7522L222.276 46.4383Z" fill="#E09BD3"/>
<path d="M219.101 43.751L217.012 48.4518" stroke="#25282D" stroke-width="3" stroke-miterlimit="10"/>
<path opacity="0.68" d="M223.565 80.3478L234.13 70.3085C236.788 67.783 240.392 66.364 244.151 66.3637H256.612L258.885 64.2013C260.692 62.4861 263.141 61.5223 265.694 61.5215H273.739C275.148 61.522 276.499 62.0542 277.496 63.001C278.492 63.9478 279.052 65.2317 279.053 66.5707C279.052 67.9097 278.491 69.1934 277.494 70.1398C276.497 71.0862 275.146 71.6178 273.737 71.6178H243.171C241.289 71.6178 239.425 71.97 237.686 72.6545C235.948 73.339 234.368 74.3422 233.037 75.6069L227.155 81.1967" fill="#CBCFD3"/>
<path d="M240.072 79.106H249.508" stroke="white" stroke-width="3" stroke-miterlimit="10" stroke-linecap="square"/>
<path d="M240.711 107.372H188.968C185.086 107.372 181.289 108.454 178.048 110.485C174.807 112.515 172.264 115.404 170.734 118.795L144.774 176.344L167.46 186.481L193.41 132.713H239.275L240.711 107.372Z" fill="#DC9104"/>
<path d="M240.712 107.37V132.711H226.3V186.318H202.008V123.02C202.008 118.87 203.743 114.89 206.831 111.955C209.919 109.02 214.108 107.371 218.475 107.37H240.712Z" fill="#DC9104"/>
<path d="M202.008 132.713V123.02C202.008 118.87 203.743 114.89 206.831 111.955C209.919 109.02 214.108 107.371 218.475 107.37" stroke="white" stroke-width="3" stroke-miterlimit="10" stroke-linecap="square"/>
<path d="M241.583 104.534H252.473V135.895H231.616V114.005C231.616 111.493 232.666 109.084 234.536 107.308C236.405 105.532 238.94 104.534 241.583 104.534Z" fill="#601C4F"/>
<path d="M235.081 78.2827H219.462V98.4036H235.081V78.2827Z" fill="#72A065"/>
<path d="M238.499 79.7671H234.872C233.122 79.7671 231.703 81.1153 231.703 82.7785V92.8051C231.703 94.4682 233.122 95.8165 234.872 95.8165H238.499C240.249 95.8165 241.668 94.4682 241.668 92.8051V82.7785C241.668 81.1153 240.249 79.7671 238.499 79.7671Z" fill="#72A065"/>
<path d="M235.081 82.2041H236.766C237.092 82.2038 237.415 82.2646 237.717 82.383C238.018 82.5014 238.292 82.6751 238.523 82.8941C238.754 83.1131 238.937 83.3733 239.062 83.6596C239.188 83.9459 239.252 84.2529 239.252 84.5629V91.0144C239.252 91.6405 238.991 92.241 238.525 92.6838C238.059 93.1266 237.427 93.3753 236.768 93.3753H235.083V82.2041H235.081Z" fill="white"/>
<path d="M225.083 87.0232L227.256 89.2258L229.461 86.9937" stroke="white" stroke-width="23" stroke-miterlimit="10" stroke-linecap="round"/>
<path d="M89.5356 98.4668L60.4141 195.946" stroke="#475056" stroke-width="5" stroke-miterlimit="10"/>
<path d="M121.075 98.4668L91.9561 195.946" stroke="#475056" stroke-width="5" stroke-miterlimit="10"/>
<path d="M270.188 98.3677L299.336 195.946" stroke="#475056" stroke-width="5" stroke-miterlimit="10"/>
<path d="M238.615 98.3677L267.766 195.946" stroke="#475056" stroke-width="5" stroke-miterlimit="10"/>
<path d="M237.441 81.6824C236.286 82.6581 235.919 92.5728 237.441 93.2971C238.964 94.0214 247.14 92.7797 247.14 87.3124C247.14 81.845 239.095 80.2866 237.441 81.6824Z" fill="#E09BD3"/>
<path d="M206.077 77.8389L203.272 85.7918L205.29 90.2391" stroke="#25282D" stroke-width="3" stroke-miterlimit="10"/>
<path d="M161.358 35.4413V78.327C161.358 78.999 161.077 79.6436 160.577 80.1188C160.077 80.5941 159.398 80.8611 158.691 80.8611H156.913C157.62 80.8611 158.299 80.5941 158.799 80.1188C159.299 79.6436 159.58 78.999 159.58 78.327V35.4413C159.58 34.7692 159.299 34.1247 158.799 33.6494C158.299 33.1742 157.62 32.9072 156.913 32.9072H158.691C159.398 32.9072 160.077 33.1742 160.577 33.6494C161.077 34.1247 161.358 34.7692 161.358 35.4413Z" fill="#24272D"/>
<path d="M156.913 32.9072H75.6775C74.2047 32.9072 73.0107 34.0418 73.0107 35.4413V78.327C73.0107 79.7265 74.2047 80.8611 75.6775 80.8611H156.913C158.386 80.8611 159.58 79.7265 159.58 78.327V35.4413C159.58 34.0418 158.386 32.9072 156.913 32.9072Z" fill="#601C4F"/>
<path d="M118.073 52.3185C120.697 52.3185 122.824 50.2971 122.824 47.8035C122.824 45.31 120.697 43.2886 118.073 43.2886C115.449 43.2886 113.321 45.31 113.321 47.8035C113.321 50.2971 115.449 52.3185 118.073 52.3185Z" fill="white"/>
<path d="M122.12 38.9933C122.12 38.9933 122.151 40.6531 121.095 41.6562C120.04 42.6593 118.293 42.6297 118.293 42.6297C118.293 42.6297 118.26 40.9699 119.318 39.9668C120.375 38.9637 122.12 38.9933 122.12 38.9933Z" fill="white"/>
<path d="M112.357 98.4055H94.8047L107.87 59.3105H125.422L112.357 98.4055Z" fill="#601C4F"/>
<path d="M100.668 80.861L107.871 59.3105H125.423" stroke="white" stroke-width="3" stroke-miterlimit="10"/>
<path d="M118.222 80.861H125.422V59.3105L118.222 80.861Z" fill="#24272D"/>
<path d="M124.42 95.502H101.81V98.0572H124.42V95.502Z" fill="#72A065"/>
<path d="M63.0605 98.4058H290.148" stroke="#475056" stroke-width="5" stroke-miterlimit="10"/>
<path d="M113.115 80.8613C113.058 81.0455 112.992 81.2266 112.915 81.404C111.913 83.71 109.477 84.9391 107.472 84.1493C106.139 83.6235 105.332 82.3395 105.237 80.857C105.192 80.0681 105.335 79.2797 105.657 78.551C106.659 76.245 109.097 75.0159 111.101 75.8057C112.937 76.5322 113.782 78.7178 113.115 80.8613Z" fill="white"/>
<path d="M113.114 80.861H105.225C105.18 80.072 105.323 79.2836 105.645 78.5549C106.647 76.2489 109.085 75.0198 111.09 75.8096C112.936 76.5318 113.781 78.7175 113.114 80.861Z" fill="#24272D"/>
<path d="M136.852 96.2937C137.81 96.2937 138.588 95.5553 138.588 94.6444C138.588 93.7335 137.81 92.9951 136.852 92.9951C135.893 92.9951 135.116 93.7335 135.116 94.6444C135.116 95.5553 135.893 96.2937 136.852 96.2937Z" fill="#72A065"/>
<path d="M188.674 132.713H193.41L193.616 128.743" stroke="white" stroke-width="3" stroke-miterlimit="10"/>
<path d="M221.36 131.974L226.301 132.711V128.099" stroke="white" stroke-width="3" stroke-miterlimit="10"/>
</svg>
