<svg width="20" height="21" viewBox="0 0 20 21" fill="none" xmlns="http://www.w3.org/2000/svg">
<path d="M19.7875 10.7252C19.7875 10.0668 19.7292 9.44183 19.6292 8.8335H10.2125V12.5918H15.6042C15.3625 13.8252 14.6542 14.8668 13.6042 15.5752V18.0752H16.8209C18.7042 16.3335 19.7875 13.7668 19.7875 10.7252Z" fill="#4285F4"/>
<path d="M10.2125 20.4999C12.9125 20.4999 15.1708 19.5999 16.8208 18.0749L13.6041 15.5749C12.7041 16.1749 11.5625 16.5415 10.2125 16.5415C7.60414 16.5415 5.39581 14.7832 4.60414 12.4082H1.28748V14.9832C2.92914 18.2499 6.30414 20.4999 10.2125 20.4999Z" fill="#34A853"/>
<path d="M4.60419 12.4083C4.39586 11.8083 4.28752 11.1666 4.28752 10.4999C4.28752 9.83327 4.40419 9.1916 4.60419 8.5916V6.0166H1.28752C0.60419 7.3666 0.212524 8.88327 0.212524 10.4999C0.212524 12.1166 0.60419 13.6333 1.28752 14.9833L4.60419 12.4083Z" fill="#FBBC05"/>
<path d="M10.2125 4.45833C11.6875 4.45833 13.0041 4.96667 14.0458 5.95834L16.8958 3.10833C15.1708 1.49167 12.9125 0.5 10.2125 0.5C6.30414 0.5 2.92914 2.75 1.28748 6.01667L4.60414 8.59167C5.39581 6.21667 7.60414 4.45833 10.2125 4.45833Z" fill="#EA4335"/>
</svg>
