<svg width="20" height="21" viewBox="0 0 20 21" fill="none" xmlns="http://www.w3.org/2000/svg">
<path d="M17.0392 17.5433H14.0775V12.9025C14.0775 11.7958 14.055 10.3717 12.5342 10.3717C10.99 10.3717 10.7542 11.5758 10.7542 12.8208V17.5433H7.7925V8H10.6375V9.30083H10.6758C11.0733 8.55083 12.04 7.75917 13.4842 7.75917C16.485 7.75917 17.04 9.73417 17.04 12.305V17.5433H17.0392ZM4.4475 6.69417C3.49417 6.69417 2.72833 5.9225 2.72833 4.97333C2.72833 4.025 3.495 3.25417 4.4475 3.25417C5.3975 3.25417 6.1675 4.025 6.1675 4.97333C6.1675 5.9225 5.39667 6.69417 4.4475 6.69417ZM5.9325 17.5433H2.9625V8H5.9325V17.5433ZM18.5208 0.5H1.47583C0.66 0.5 0 1.145 0 1.94083V19.0592C0 19.8558 0.66 20.5 1.47583 20.5H18.5183C19.3333 20.5 20 19.8558 20 19.0592V1.94083C20 1.145 19.3333 0.5 18.5183 0.5H18.5208Z" fill="#0A66C2"/>
</svg>
